<?xml version="1.0" encoding="iso-8859-1"?>
<!-- Generator: Adobe Illustrator 19.0.0, SVG Export Plug-In . SVG Version: 6.00 Build 0)  -->
<svg version="1.1" id="Capa_1" xmlns="http://www.w3.org/2000/svg" xmlns:xlink="http://www.w3.org/1999/xlink" x="0px" y="0px"
	 viewBox="0 0 512 512" style="enable-background:new 0 0 512 512;" xml:space="preserve">
<g>
	<g>
		<path style="fill:#455a64;" d="M414.289,359.474L278.358,223.543l13.121-13.121c3.144,1.324,6.596,2.057,10.216,2.057
			c14.565,0,26.416-11.851,26.416-26.416s-11.851-26.416-26.416-26.416s-26.416,11.851-26.416,26.416
			c0,3.62,0.733,7.072,2.057,10.217l-13.12,13.12L128.285,73.47c-3.906-3.904-10.236-3.904-14.143,0
			C74.057,113.556,51.98,166.853,51.98,223.543c0,49.094,16.568,95.636,47.039,133.264l-27.542,92.929
			c-19.223,10.469-34.822,27.271-43.702,48.388c-1.299,3.087-0.965,6.619,0.889,9.409c1.853,2.79,4.979,4.467,8.329,4.467h163.352
			c3.35,0,6.477-1.677,8.329-4.467c1.854-2.79,2.188-6.322,0.889-9.409c-8.774-20.866-24.106-37.523-43.016-48.017v-38.126
			c30.517,15.792,64.087,23.698,97.669,23.698c54.342,0,108.702-20.692,150.073-62.063c1.875-1.876,2.929-4.419,2.929-7.071
			C417.218,363.893,416.164,361.35,414.289,359.474z M301.695,179.646c3.538,0,6.416,2.878,6.416,6.416
			c0,3.538-2.878,6.416-6.416,6.416c-3.538,0-6.416-2.878-6.416-6.416C295.279,182.524,298.157,179.646,301.695,179.646z
			 M114.728,374.188c9.927,9.852,20.592,18.518,31.818,26.001v41.557c-8.903-2.614-18.267-4.009-27.877-4.009
			c-8.092,0-16.009,0.996-23.625,2.867L114.728,374.188z M183.586,492H53.752c14.446-21.205,38.549-34.263,64.917-34.263
			S169.14,470.795,183.586,492z M264.216,415.688c-49.222-0.004-98.459-18.742-135.931-56.214
			C91.977,323.166,71.98,274.891,71.98,223.543c0-48.001,17.474-93.315,49.413-128.681l271.5,271.501
			C356.435,399.254,310.336,415.692,264.216,415.688z"/>
	</g>
</g>
<g>
	<g>
		<path style="fill:#455a64;" d="M340.184,69.425c-5.224-1.787-10.91,1.001-12.697,6.227c-1.787,5.226,1.001,10.911,6.227,12.697
			c40.885,13.979,68.354,52.422,68.354,95.661c0,5.522,4.478,10,10,10c5.522,0,10-4.478,10-10
			C422.067,132.218,389.161,86.17,340.184,69.425z"/>
	</g>
</g>
<g>
	<g>
		<path style="fill:#455a64;" d="M301.312,62.939h-0.315c-5.522,0-10,4.478-10,10c0,5.522,4.478,10,10,10h0.315c5.522,0,10-4.478,10-10
			C311.312,67.417,306.834,62.939,301.312,62.939z"/>
	</g>
</g>
<g>
	<g>
		<path style="fill:#455a64;" d="M485.006,183.841c-0.04-5.488-4.502-9.925-10-9.925c-5.522,0-10,4.478-10,10c0,0.04,0.001,0.112,0.001,0.166
			c0.039,5.489,4.501,9.928,10,9.928c5.522,0,10-4.478,10-10C485.007,183.97,485.006,183.896,485.006,183.841z"/>
	</g>
</g>
<g>
	<g>
		<path style="fill:#455a64;" d="M479.761,140.215c-9.604-39.328-32.438-74.944-64.298-100.286C382.625,13.807,343.044,0,300.997,0
			c-5.522,0-10,4.478-10,10s4.478,10,10,10c75.848,0,141.368,51.385,159.334,124.959c1.116,4.568,5.204,7.63,9.707,7.63
			c0.785,0,1.583-0.093,2.38-0.287C477.783,150.991,481.07,145.58,479.761,140.215z"/>
	</g>
</g>
<g>
	<g>
		<path style="fill:#455a64;" d="M300.997,117.699c-5.522,0-10,4.478-10,10c0,5.522,4.478,10,10,10c25.535,0,46.31,20.774,46.31,46.311
			c0,5.522,4.478,10,10,10c5.522,0,10-4.478,10-10C367.307,147.447,337.561,117.699,300.997,117.699z"/>
	</g>
</g>
<g>
	<g>
		<path style="fill:#455a64;" d="M320.513,369.188c-1.653-5.271-7.268-8.203-12.534-6.55c-52.048,16.323-108.314,2.525-146.85-36.01
			c-3.906-3.904-10.236-3.904-14.143,0c-3.905,3.905-3.905,10.237,0,14.143c31.647,31.644,73.806,48.62,117.077,48.62
			c16.647,0,33.46-2.513,49.9-7.669C319.234,380.069,322.165,374.457,320.513,369.188z"/>
	</g>
</g>
<g>
</g>
<g>
</g>
<g>
</g>
<g>
</g>
<g>
</g>
<g>
</g>
<g>
</g>
<g>
</g>
<g>
</g>
<g>
</g>
<g>
</g>
<g>
</g>
<g>
</g>
<g>
</g>
<g>
</g>
</svg>
