<svg height="512" viewBox="0 0 512 512" width="512"
	xmlns="http://www.w3.org/2000/svg">
	<g id="Out_line" data-name="Out line">
		<path style="fill:#e7305b;" d="m184 448h-32v-16h64a8.00039 8.00039 0 0 0 8-8v-112a8.00039 8.00039 0 0 0 -8-8h-192a8.00039 8.00039 0 0 0 -8 8v112a8.00039 8.00039 0 0 0 8 8h64v16h-32a8.00039 8.00039 0 0 0 -8 8v32a8.00039 8.00039 0 0 0 8 8h128a8.00039 8.00039 0 0 0 8-8v-32a8.00039 8.00039 0 0 0 -8-8zm-152-128h176v96h-176zm72 112h32v16h-32zm72 48h-112v-16h112z"/>
		<path style="fill:#e7305b;" d="m208 480h48v16h-48z"/>
		<path style="fill:#e7305b;" d="m312 184h16v24h-16z"/>
		<path style="fill:#e7305b;" d="m104 160h192v-16h-192v-112h208v8h16v-16a8.00039 8.00039 0 0 0 -8-8h-224a8.00039 8.00039 0 0 0 -8 8v264h16z"/>
		<path style="fill:#e7305b;" d="m120 64h16v48h-16z"/>
		<path style="fill:#e7305b;" d="m120 184h16v56h-16z"/>
		<path style="fill:#e7305b;" d="m472 224h-192a8.00039 8.00039 0 0 0 -8 8v256a8.00039 8.00039 0 0 0 8 8h192a8.00039 8.00039 0 0 0 8-8v-256a8.00039 8.00039 0 0 0 -8-8zm-8 40h-24v-24h24zm-152-24v24h-24v-24zm-24 40h32a8.00039 8.00039 0 0 0 8-8v-32h96v32a8.00039 8.00039 0 0 0 8 8h32v160h-32a8.00039 8.00039 0 0 0 -8 8v32h-136zm152 200v-24h24v24z"/>
		<path style="fill:#e7305b;" d="m456 360a80 80 0 1 0 -80 80 80.09041 80.09041 0 0 0 80-80zm-144 0a64 64 0 1 1 64 64 64.07207 64.07207 0 0 1 -64-64z"/>
		<path style="fill:#e7305b;" d="m432 360a56 56 0 1 0 -56 56 56.0629 56.0629 0 0 0 56-56zm-16 0a39.96938 39.96938 0 0 1 -60.00659 34.61475 55.9001 55.9001 0 0 0 0-69.2295 39.96938 39.96938 0 0 1 60.00659 34.61475zm-80 0a39.7915 39.7915 0 0 1 8.001-23.97314 39.92338 39.92338 0 0 1 0 47.94628 39.7915 39.7915 0 0 1 -8.001-23.97314z"/>
		<path style="fill:#e7305b;" d="m400 208a96 96 0 1 0 -96-96 96.10874 96.10874 0 0 0 96 96zm0-176a80 80 0 1 1 -80 80 80.09041 80.09041 0 0 1 80-80z"/>
		<path style="fill:#e7305b;" d="m376 152a7.97772 7.97772 0 0 0 5.65723-2.34277l72-72-11.31446-11.31446-66.34277 66.34375-18.34277-18.34375-11.31446 11.31446 24 24a7.97772 7.97772 0 0 0 5.65723 2.34277z"/>
	</g>
</svg>