<?xml version="1.0" encoding="iso-8859-1"?>
<!-- Generator: Adobe Illustrator 19.0.0, SVG Export Plug-In . SVG Version: 6.00 Build 0)  -->
<svg version="1.1" id="Layer_1" xmlns="http://www.w3.org/2000/svg" xmlns:xlink="http://www.w3.org/1999/xlink" x="0px" y="0px"
	 viewBox="0 0 512 512" style="enable-background:new 0 0 512 512;" xml:space="preserve">
<g>
	<g>
		<g>
			<!-- <path d="M486.4,110.933H25.6c-14.134,0-25.6,11.466-25.6,25.6v238.933c0,14.134,11.466,25.6,25.6,25.6h460.8
				c14.134,0,25.6-11.466,25.6-25.6V136.533C512,122.4,500.534,110.933,486.4,110.933z M494.933,375.467
				c0,4.708-3.825,8.533-8.533,8.533H25.6c-4.708,0-8.533-3.825-8.533-8.533V136.533c0-4.708,3.825-8.533,8.533-8.533h460.8
				c4.708,0,8.533,3.825,8.533,8.533V375.467z"/> -->
			<path style="fill:#455a64;" d="M443.733,179.2H68.267c-4.713,0-8.533,3.82-8.533,8.533v102.4c0,2.263,0.899,4.434,2.499,6.034l34.133,34.133
				c1.6,1.6,3.771,2.499,6.034,2.499h307.2c2.263,0,4.434-0.899,6.034-2.499l34.133-34.133c1.6-1.6,2.499-3.771,2.499-6.034v-102.4
				C452.267,183.021,448.446,179.2,443.733,179.2z M435.2,286.599l-29.135,29.135H105.935L76.8,286.599v-90.332h358.4V286.599z"/>
			<path style="fill:#455a64;" d="M102.4,273.068h307.2c4.713,0,8.533-3.82,8.533-8.533v-34.133c0-4.713-3.82-8.533-8.533-8.533H102.4
				c-4.713,0-8.533,3.82-8.533,8.533v34.133C93.867,269.248,97.687,273.068,102.4,273.068z M110.933,238.935h290.133v17.067H110.933
				V238.935z"/>
		</g>
	</g>
</g>
<g>
</g>
<g>
</g>
<g>
</g>
<g>
</g>
<g>
</g>
<g>
</g>
<g>
</g>
<g>
</g>
<g>
</g>
<g>
</g>
<g>
</g>
<g>
</g>
<g>
</g>
<g>
</g>
<g>
</g>
</svg>
