<?xml version="1.0" encoding="iso-8859-1"?>
<!-- Generator: Adobe Illustrator 19.0.0, SVG Export Plug-In . SVG Version: 6.00 Build 0)  -->
<svg version="1.1" id="Capa_1" xmlns="http://www.w3.org/2000/svg" xmlns:xlink="http://www.w3.org/1999/xlink" x="0px" y="0px"
	 viewBox="0 0 600 600" style="enable-background:new 0 0 512 512;" xml:space="preserve">
<g>
	<g>
		<g>
			<path style="fill:#455a64;" d="M80,0H48v96H0v192c0.109,29.095,19.829,54.454,48,61.728V448h32v-98.272c28.171-7.273,47.891-32.633,48-61.728V96H80V0z
				 M96,288c0,17.673-14.327,32-32,32s-32-14.327-32-32v-32h64V288z M96,128v96H32v-96H96z"/>
			<path style="fill:#455a64;" d="M272,0h-32v96h-48v192c0.109,29.095,19.829,54.454,48,61.728V448h32v-98.272c28.171-7.273,47.891-32.633,48-61.728V96
				h-48V0z M288,288c0,17.673-14.327,32-32,32c-17.673,0-32-14.327-32-32v-32h64V288z M288,128v96h-64v-96H288z"/>
			<path style="fill:#455a64;" d="M464,96V0h-32v96h-48v192c0.109,29.095,19.829,54.454,48,61.728V448h32v-98.272c28.171-7.273,47.891-32.633,48-61.728V96
				H464z M480,288c0,17.673-14.327,32-32,32c-17.673,0-32-14.327-32-32v-32h64V288z M480,224h-64v-96h64V224z"/>
			<rect style="fill:#455a64;" x="48" y="480" width="32" height="32"/>
			<rect style="fill:#455a64;" x="240" y="480" width="32" height="32"/>
			<rect style="fill:#455a64;" x="432" y="480" width="32" height="32"/>
		</g>
	</g>
</g>
<g>
</g>
<g>
</g>
<g>
</g>
<g>
</g>
<g>
</g>
<g>
</g>
<g>
</g>
<g>
</g>
<g>
</g>
<g>
</g>
<g>
</g>
<g>
</g>
<g>
</g>
<g>
</g>
<g>
</g>
</svg>
