<?xml version="1.0" encoding="iso-8859-1"?>
<!-- Generator: Adobe Illustrator 19.0.0, SVG Export Plug-In . SVG Version: 6.00 Build 0)  -->
<svg version="1.1" id="Capa_1" xmlns="http://www.w3.org/2000/svg" xmlns:xlink="http://www.w3.org/1999/xlink" x="0px" y="0px"
	 viewBox="0 0 496 496" style="enable-background:new 0 0 496 496;" xml:space="preserve">
<g>
	<g>
		<path style="fill:#455a64;" d="M423.36,72.635C376.85,26.126,313.769-0.001,247.995,0c-4.418,0-8,3.582-8,8v64c0,4.418,3.582,8,8,8s8-3.582,8-8V16.136
			c128.054,4.416,228.282,111.805,223.866,239.859c-4.416,128.054-111.805,228.282-239.859,223.866
			C111.948,475.444,11.72,368.055,16.136,240.002c2.025-58.727,26.26-114.498,67.811-156.049c3.069-3.178,2.981-8.243-0.197-11.312
			c-3.1-2.994-8.015-2.994-11.115,0c-96.849,96.851-96.846,253.876,0.005,350.725s253.876,96.846,350.725-0.005
			S520.211,169.484,423.36,72.635z"/>
	</g>
</g>
<g>
	<g>
		<path style="fill:#455a64;" d="M247.995,216c-5.695,0.028-11.276,1.595-16.152,4.536l-113.96-113.96c-3.178-3.069-8.243-2.981-11.312,0.197
			c-2.994,3.1-2.994,8.015,0,11.115l113.96,113.96c-2.941,4.876-4.508,10.457-4.536,16.152c0,17.673,14.327,32,32,32
			c17.673,0,32-14.327,32-32S265.668,216,247.995,216z M247.995,264c-8.837,0-16-7.163-16-16c0-8.837,7.163-16,16-16
			c8.837,0,16,7.163,16,16C263.995,256.837,256.832,264,247.995,264z"/>
	</g>
</g>
<g>
</g>
<g>
</g>
<g>
</g>
<g>
</g>
<g>
</g>
<g>
</g>
<g>
</g>
<g>
</g>
<g>
</g>
<g>
</g>
<g>
</g>
<g>
</g>
<g>
</g>
<g>
</g>
<g>
</g>
</svg>
