<svg id="Layer_1" enable-background="new 0 0 480.255 480.255" height="512" viewBox="0 0 480.255 480.255" width="512" xmlns="http://www.w3.org/2000/svg"><path style="fill:#455a64;" d="m309.571 72.904c-1.514 4.151-6.105 6.289-10.257 4.774-72.978-26.622-156.84-1.377-202.263 65.149-2.488 3.645-7.463 4.591-11.118 2.096-3.649-2.491-4.587-7.469-2.096-11.117 49.589-72.627 141.172-100.263 220.96-71.159 4.151 1.514 6.288 6.106 4.774 10.257zm-238.929 97.717h129.414c3.729-18.661 20.233-32.767 39.974-32.767 22.479 0 40.767 18.288 40.767 40.767s-18.288 40.768-40.767 40.768c-19.741 0-36.246-14.106-39.974-32.768h-124.543c-36.437 111.808 47.369 226.634 164.517 226.634 110.168 0 193.363-102.542 168.735-211.354-.975-4.31 1.728-8.593 6.037-9.568 4.309-.979 8.593 1.728 9.568 6.037 26.889 118.808-63.929 230.886-184.341 230.886-130.503 0-222.416-130.145-177.738-253.411 1.28-3.528 4.78-5.598 8.351-5.224zm144.621 8c0 13.657 11.11 24.768 24.767 24.768s24.767-11.11 24.767-24.768c0-13.656-11.11-24.767-24.767-24.767s-24.767 11.111-24.767 24.767zm72.556 154.617c0 14.736-11.988 26.725-26.724 26.725h-42.129c-14.736 0-26.724-11.988-26.724-26.725 0-14.735 11.988-26.724 26.724-26.724h42.129c14.736 0 26.724 11.988 26.724 26.724zm-16 0c0-5.913-4.811-10.724-10.724-10.724h-42.129c-5.913 0-10.724 4.811-10.724 10.724s4.811 10.725 10.724 10.725h42.129c5.913-.001 10.724-4.812 10.724-10.725zm28.867-154.617c0 4.418 3.582 8 8 8h54.345c4.418 0 8-3.582 8-8s-3.582-8-8-8h-54.345c-4.419 0-8 3.582-8 8zm158.937-13.843c-4.226 1.29-6.606 5.761-5.316 9.987 43.984 144.093-64.427 289.49-214.277 289.49-123.514 0-224-100.486-224-224 0-165.344 174.222-274.091 322.639-201.17 3.967 1.947 8.759.313 10.708-3.653 1.948-3.965.313-8.76-3.652-10.708-158.258-77.749-345.695 37.114-345.695 215.531 0 132.645 107.341 240 240 240 161.232 0 276.659-155.928 229.58-310.162-1.29-4.225-5.763-6.602-9.987-5.315zm-58.854-9.62c-5.862-5.861-5.863-15.351 0-21.214 5.861-5.862 15.349-5.863 21.212 0 0 .001.004.005.001.001 5.861 5.862 5.862 15.35-.001 21.213-5.848 5.847-15.364 5.847-21.212 0zm47.375-36.063c3.124-3.124 3.125-8.189 0-11.314-20.322-20.322-53.215-20.325-73.539.001-3.124 3.124-3.124 8.189 0 11.313 3.124 3.123 8.189 3.124 11.314-.001 14.069-14.069 36.84-14.07 50.911.001 3.126 3.124 8.19 3.123 11.314 0zm-103.237-29.698c3.124 3.123 8.189 3.123 11.313 0 30.482-30.484 79.822-30.489 110.309 0 3.125 3.124 8.189 3.123 11.313 0 3.125-3.125 3.125-8.189 0-11.314-36.738-36.737-96.196-36.74-132.936 0-3.124 3.124-3.124 8.19.001 11.314z"/></svg>