<?xml version="1.0" encoding="iso-8859-1"?>
<!-- Generator: Adobe Illustrator 19.0.0, SVG Export Plug-In . SVG Version: 6.00 Build 0)  -->
<svg version="1.1" id="Capa_1" xmlns="http://www.w3.org/2000/svg" xmlns:xlink="http://www.w3.org/1999/xlink" x="0px" y="0px"
	 viewBox="0 0 512 512" style="enable-background:new 0 0 512 512;" xml:space="preserve">
<g>
	<g>
		<path d="M205.47,36.126c-17.508,0-31.752,14.244-31.752,31.752c0,17.509,14.244,31.752,31.752,31.752s31.752-14.244,31.752-31.752
			C237.223,50.37,222.979,36.126,205.47,36.126z M205.47,84.63c-9.237,0-16.752-7.515-16.752-16.752s7.515-16.752,16.752-16.752
			s16.752,7.515,16.752,16.752S214.708,84.63,205.47,84.63z"/>
	</g>
</g>
<g>
	<g>
		<path d="M119.577,36.126c-17.508,0-31.752,14.244-31.752,31.752c0,17.509,14.244,31.752,31.752,31.752
			s31.752-14.244,31.752-31.752C151.329,50.37,137.085,36.126,119.577,36.126z M119.577,84.63c-9.237,0-16.752-7.515-16.752-16.752
			s7.515-16.752,16.752-16.752s16.752,7.515,16.752,16.752S128.814,84.63,119.577,84.63z"/>
	</g>
</g>
<g>
	<g>
		<path d="M394.943,36.126h-86.267c-9.428,0-17.098,7.67-17.098,17.098v29.309c0,9.428,7.67,17.098,17.098,17.098h86.267
			c9.428,0,17.098-7.67,17.098-17.098V53.224C412.041,43.796,404.371,36.126,394.943,36.126z M397.041,82.533
			c0,1.157-0.941,2.098-2.098,2.098h-86.267c-1.157,0-2.098-0.941-2.098-2.098V53.224c0-1.157,0.941-2.098,2.098-2.098h86.267
			c1.157,0,2.098,0.941,2.098,2.098V82.533z"/>
	</g>
</g>
<g>
	<g>
		<path d="M255.996,153.637c-30.763,0-59.871,9.919-84.176,28.686c-3.279,2.531-3.884,7.241-1.353,10.52
			c2.532,3.279,7.242,3.884,10.52,1.353c21.656-16.721,47.593-25.559,75.009-25.559c67.743,0,122.856,55.113,122.856,122.856
			s-55.113,122.856-122.856,122.856S133.14,359.235,133.14,291.493c0-28.197,9.796-55.742,27.583-77.563
			c2.617-3.211,2.136-7.935-1.075-10.552s-7.935-2.136-10.552,1.074c-19.962,24.489-30.957,55.401-30.957,87.041
			c0,76.014,61.842,137.856,137.856,137.856s137.856-61.842,137.856-137.856S332.01,153.637,255.996,153.637z"/>
	</g>
</g>
<g>
	<g>
		<path d="M474.269,453.778V57.642C474.269,25.858,448.415,0,416.637,0H95.355C63.577,0,37.723,25.858,37.723,57.642v396.727
			c0,31.778,25.854,57.631,57.631,57.631h321.282c31.493,0,57.152-25.396,57.61-56.782
			C474.279,454.939,474.284,453.974,474.269,453.778z M459.269,446.868h-62.09c-4.142,0-7.5,3.358-7.5,7.5
			c0,4.142,3.358,7.5,7.5,7.5h61.43C455.054,481.812,437.586,497,416.637,497H95.355c-20.949,0-38.417-15.188-41.971-35.131h313.794
			c4.142,0,7.5-3.358,7.5-7.5c0-4.142-3.358-7.5-7.5-7.5H52.724V135.756h406.545V446.868z M459.269,120.757H52.723V57.642
			C52.723,34.129,71.848,15,95.355,15h321.282c23.507,0,42.632,19.129,42.632,42.642V120.757z"/>
	</g>
</g>
<g>
	<g>
		<path d="M255.996,188.502c-56.791,0-102.994,46.203-102.994,102.993c0.001,4.997,0.36,9.996,1.069,14.856
			c0,0.004,0.002,0.007,0.002,0.011c3.507,24.259,15.657,46.542,34.217,62.745c18.747,16.367,42.792,25.381,67.705,25.381
			c24.913,0,48.958-9.014,67.706-25.381c18.558-16.202,30.708-38.482,34.216-62.74c0.001-0.005,0.002-0.01,0.003-0.015
			c0.709-4.856,1.069-9.855,1.069-14.857C358.989,234.704,312.786,188.502,255.996,188.502z M313.836,357.807
			c-16.015,13.981-36.556,21.681-57.841,21.681c-21.285,0-41.826-7.7-57.84-21.681c-14.694-12.828-24.687-30.107-28.458-49.052
			l4.624-3.147c7.728-5.258,18.186-5.262,25.919,0c12.768,8.688,30.024,8.69,42.795,0c7.716-5.247,18.203-5.251,25.919,0
			c12.773,8.691,30.023,8.689,42.799-0.002c7.746-5.269,18.173-5.272,25.914,0.001l4.625,3.148
			C338.523,327.699,328.531,344.979,313.836,357.807z M343.988,291.861c-0.053-0.031-0.109-0.058-0.163-0.089
			c-4.026-2.342-8.426-3.849-13.005-4.654c-5.731-1.008-11.766-0.539-17.317,1.174c-3.619,1.117-7.063,2.782-10.192,4.914
			c-7.735,5.263-18.194,5.255-25.919,0c-6.341-4.314-13.74-6.595-21.397-6.595c-7.609,0-15.108,2.316-21.398,6.594
			c-7.748,5.27-18.175,5.267-25.919,0c-6.341-4.314-13.74-6.595-21.397-6.595c-6.645,0-13.379,1.792-19.116,5.163
			c-0.053,0.031-0.109,0.057-0.162,0.088c-0.001-0.123-0.001-0.245-0.001-0.368c0.001-48.518,39.474-87.992,87.994-87.992
			c48.52,0,87.993,39.474,87.993,87.993C343.989,291.616,343.989,291.739,343.988,291.861z"/>
	</g>
</g>
<g>
</g>
<g>
</g>
<g>
</g>
<g>
</g>
<g>
</g>
<g>
</g>
<g>
</g>
<g>
</g>
<g>
</g>
<g>
</g>
<g>
</g>
<g>
</g>
<g>
</g>
<g>
</g>
<g>
</g>
</svg>
